<svg width="52" height="52" viewBox="0 0 52 52" fill="none" xmlns="http://www.w3.org/2000/svg">
<path d="M26 51C12.1929 51 1 39.8071 1 26C1 12.1929 12.1929 1 26 1C39.8071 1 51 12.1929 51 26C51 32.9038 48.2029 39.1525 43.6777 43.6777C39.1525 48.2029 32.9038 51 26 51Z" stroke="#8276F4" stroke-width="2" stroke-linecap="round" stroke-linejoin="round"/>
<path d="M26.4185 30.3761V27.9931C26.4185 25.9922 27.5015 24.1385 29.2387 23.1458C30.9626 22.1608 32.0372 20.3214 32.0372 18.336C32.0372 15.6762 29.881 13.52 27.2212 13.52H25.6158C22.956 13.52 20.7998 15.6762 20.7998 18.336" stroke="#8276F4" stroke-width="2" stroke-linecap="round" stroke-linejoin="round"/>
<circle cx="26" cy="36.4" r="0.54" stroke="#8276F4"/>
</svg>
