<svg width="133" height="133" viewBox="0 0 133 133" fill="none" xmlns="http://www.w3.org/2000/svg">
<path d="M81.8721 44.3548L96.6531 60.5526C97.4998 61.4805 98.9621 61.4805 99.8089 60.5526L114.59 44.3548C123.551 32.9688 109.331 21.5828 100.564 32.7382C99.4543 34.1498 97.0076 34.1498 95.8982 32.7382C87.1311 21.5828 72.9107 32.9688 81.8721 44.3548Z" fill="#A8ABFF"/>
<path d="M34.9062 108.314L49.6872 124.511C50.5339 125.439 51.9962 125.439 52.8429 124.511L67.624 108.314C76.5855 96.9276 62.365 85.5416 53.5979 96.697C52.4884 98.1087 50.0417 98.1087 48.9323 96.697C40.1652 85.5416 25.9447 96.9276 34.9062 108.314Z" fill="#A8ABFF"/>
<path d="M1 77.0536H27.0323C27.9078 77.0536 28.6926 76.4125 29.0056 75.4417L34.0933 59.1871C34.8427 56.8628 37.6777 57.1127 38.1298 59.543L51.6346 130.032C52.1372 132.734 55.4129 132.622 55.7838 129.89L63.0216 78.6896C63.1866 77.4737 64.0704 76.5799 65.1076 76.5799H74.2633C75.0248 76.5799 75.7275 77.0666 76.1024 77.8537L80.1247 86.299C81.1024 88.3519 83.7089 87.814 84.0461 85.4899L96.3129 3.08304C96.725 0.2429 100.185 0.333644 100.491 3.19261L108.342 74.861C108.476 76.1143 109.374 77.0536 110.438 77.0536H132" stroke="#000577" stroke-linecap="round" stroke-linejoin="round"/>
</svg>
