<svg width="123" height="121" viewBox="0 0 123 121" fill="none" xmlns="http://www.w3.org/2000/svg">
<path d="M75.8254 63.6788C75.8254 69.6544 78.1675 75.0845 81.9863 79.1058C86.0872 83.4243 91.8911 86.1181 98.3259 86.1181C110.753 86.1181 120.826 76.0717 120.826 63.6788C120.826 57.2616 118.125 51.4735 113.795 47.3837C109.763 43.5754 104.318 41.2396 98.3259 41.2396C85.8992 41.2396 75.8254 51.286 75.8254 63.6788Z" fill="white"/>
<path d="M42.2039 8.05022L42.557 7.69619L42.2039 8.05022ZM8.06947 42.0917L8.42254 41.7377L8.06947 42.0917ZM8.06947 8.05022L8.42254 8.40426L8.06947 8.05022ZM81.9863 79.1058L81.6237 79.4501L81.9863 79.1058ZM113.795 47.3837L114.138 47.0202L113.795 47.3837ZM80.1049 45.1418L42.557 7.69619L41.8508 8.40425L79.3987 45.8499L80.1049 45.1418ZM7.7164 42.4457L45.2643 79.8914L45.9704 79.1833L8.42254 41.7377L7.7164 42.4457ZM7.7164 7.69619C-1.90547 17.2919 -1.90547 32.8501 7.7164 42.4457L8.42254 41.7377C-0.807514 32.5327 -0.807514 17.6092 8.42254 8.40426L7.7164 7.69619ZM42.557 7.69619C32.9359 -1.89873 17.3375 -1.89873 7.7164 7.69619L8.42254 8.40426C17.6534 -0.801418 32.62 -0.801419 41.8508 8.40425L42.557 7.69619ZM98.3259 86.6181C111.027 86.6181 121.326 76.3491 121.326 63.6788H120.326C120.326 75.7942 110.478 85.6181 98.3259 85.6181V86.6181ZM98.3259 40.7396C85.6243 40.7396 75.3254 51.0085 75.3254 63.6788H76.3254C76.3254 51.5634 86.174 41.7396 98.3259 41.7396V40.7396ZM75.3254 63.6788C75.3254 69.7878 77.7204 75.3397 81.6237 79.4501L82.3488 78.7615C78.6147 74.8293 76.3254 69.5211 76.3254 63.6788H75.3254ZM81.6237 79.4501C85.8153 83.864 91.7486 86.6181 98.3259 86.6181V85.6181C92.0336 85.6181 86.3592 82.9845 82.3488 78.7615L81.6237 79.4501ZM121.326 63.6788C121.326 57.1182 118.564 51.2004 114.138 47.0202L113.452 47.7472C117.686 51.7467 120.326 57.405 120.326 63.6788H121.326ZM114.138 47.0202C110.017 43.1276 104.45 40.7396 98.3259 40.7396V41.7396C104.185 41.7396 109.509 44.0232 113.452 47.7472L114.138 47.0202ZM82.3393 79.4598L114.148 47.7378L113.442 47.0297L81.6332 78.7518L82.3393 79.4598Z" fill="#000577"/>
<path d="M75.9173 41.493L41.4931 75.5214L79.3598 112.952C88.8658 122.349 105.017 122.349 114.523 112.952C124.029 103.556 124.029 88.3208 114.523 78.9242L75.9173 41.493Z" fill="#A8ABFF" stroke="#A8ABFF" stroke-linecap="round" stroke-linejoin="round"/>
<path d="M5.95828 63.8055C5.95828 69.7474 8.32389 75.1468 12.1809 79.1454C16.3229 83.4395 22.1848 86.118 28.684 86.118C41.235 86.118 51.4097 76.1284 51.4097 63.8055C51.4097 57.4246 48.6815 51.6692 44.3079 47.6025C40.2353 43.8156 34.7359 41.493 28.684 41.493C16.1329 41.493 5.95828 51.4827 5.95828 63.8055Z" fill="white"/>
<path d="M12.1809 79.1454C8.32389 75.1468 5.95828 69.7474 5.95828 63.8055C5.95828 51.4827 16.1329 41.493 28.684 41.493C34.7359 41.493 40.2353 43.8156 44.3079 47.6025M12.1809 79.1454C16.3229 83.4395 22.1848 86.118 28.684 86.118C41.235 86.118 51.4097 76.1284 51.4097 63.8055C51.4097 57.4246 48.6815 51.6692 44.3079 47.6025M12.1809 79.1454L44.3079 47.6025" stroke="#000577"/>
</svg>
