<svg width="116" height="117" viewBox="0 0 116 117" fill="none" xmlns="http://www.w3.org/2000/svg">
<path d="M32.2986 93.171C49.5844 93.171 63.5973 80.4737 63.5973 64.8107C63.5973 61.0498 62.7893 57.4598 61.3222 54.1756L32.2986 1L3.27509 54.1756C1.80792 57.4598 1 61.0498 1 64.8107C1 80.4737 15.0129 93.171 32.2986 93.171Z" stroke="#000577" stroke-linecap="round" stroke-linejoin="round"/>
<path d="M98.5783 116C107.73 116 115.148 109.356 115.148 101.161C115.148 99.1935 114.72 97.3152 113.944 95.5968L98.5783 67.7743L83.2129 95.5968C82.4361 97.3152 82.0084 99.1935 82.0084 101.161C82.0084 109.356 89.427 116 98.5783 116Z" stroke="#000577" stroke-linecap="round" stroke-linejoin="round"/>
<path d="M105.517 33.9585C110.747 33.9585 114.986 29.8702 114.986 24.8271C114.986 23.6161 114.741 22.4602 114.298 21.4027L105.517 4.28119L96.7372 21.4027C96.2933 22.4602 96.0489 23.6161 96.0489 24.8271C96.0489 29.8702 100.288 33.9585 105.517 33.9585Z" stroke="#000577" stroke-linecap="round" stroke-linejoin="round"/>
<path d="M76.3889 98.963C92.62 98.963 105.778 86.425 105.778 70.9586C105.778 67.2449 105.019 63.7 103.642 60.457L78.2393 11.514C77.4479 9.98916 75.33 9.98916 74.5386 11.514L49.1363 60.457C47.7587 63.7 47 67.2449 47 70.9586C47 86.425 60.1579 98.963 76.3889 98.963Z" fill="#A8ABFF"/>
</svg>
