<svg width="27" height="26" viewBox="0 0 27 26" fill="none" xmlns="http://www.w3.org/2000/svg">
<path d="M20.5 10.5C20.5 13.2616 19.3813 15.7609 17.5711 17.5711C15.7609 19.3813 13.2616 20.5 10.5 20.5C4.97715 20.5 0.5 16.0228 0.5 10.5C0.5 4.97715 4.97715 0.5 10.5 0.5C16.0228 0.5 20.5 4.97715 20.5 10.5Z" stroke="#B6B6B6" stroke-linecap="round" stroke-linejoin="round"/>
<path d="M25.6678 25.3737C25.8742 25.5572 26.1902 25.5386 26.3737 25.3322C26.5572 25.1258 26.5386 24.8098 26.3322 24.6263L25.6678 25.3737ZM16.6678 17.3737L25.6678 25.3737L26.3322 24.6263L17.3322 16.6263L16.6678 17.3737Z" fill="#B6B6B6"/>
</svg>
