<svg width="203" height="200" viewBox="0 0 203 200" fill="none" xmlns="http://www.w3.org/2000/svg">
<path d="M128.051 122.051C136.983 114.56 142.208 104.441 144.191 98.0023C159.809 98.0023 160.851 67.5771 148.356 67.5771C148.356 67.5771 148.96 63.4137 149.185 57M128.051 122.051C121.352 127.668 112.567 131.808 101.5 131.808C75.6773 131.808 62.28 109.271 58.8092 98.0023C43.1908 98.0023 42.1494 67.5771 54.6442 67.5771C54.6442 67.5771 54.0397 63.4137 53.8155 57M128.051 122.051C128.051 122.051 131.671 134.475 138.062 138.69M64.9377 138.69L9.74478 168.73C5.55753 171.492 3 176.433 3 181.762C3 190.178 9.26895 197 17.0021 197H185.998C193.731 197 200 190.178 200 181.762C200 176.433 197.442 171.492 193.255 168.73L138.062 138.69M64.9377 138.69C71.3294 134.475 74.949 122.051 74.949 122.051M64.9377 138.69C92.129 160.755 108.097 161.523 138.062 138.69" stroke="#000577" stroke-width="5" stroke-linecap="round" stroke-linejoin="round"/>
<path d="M88.5407 61C123.131 51.3695 127.298 39.8645 136.235 19.9474L136.314 20.3818C140.238 41.9978 142.464 54.2544 158.492 61C158.492 61 168.031 1 104.439 1C40.8467 1 44.0263 61 44.0263 61C65.5455 58.2531 75.0528 53.1006 88.5407 38.8947V61Z" fill="#80E3EF" stroke="#A8ABFF" stroke-linecap="round" stroke-linejoin="round"/>
<path d="M88.75 73.5C88.75 77.0899 85.8958 80 82.375 80C78.8542 80 76 77.0899 76 73.5C76 69.9101 78.8542 67 82.375 67C85.8958 67 88.75 69.9101 88.75 73.5Z" fill="#000577"/>
<path d="M127 73.5C127 77.0899 124.146 80 120.625 80C117.104 80 114.25 77.0899 114.25 73.5C114.25 69.9101 117.104 67 120.625 67C124.146 67 127 69.9101 127 73.5Z" fill="#000577"/>
</svg>
