<svg width="54" height="53" viewBox="0 0 54 53" fill="none" xmlns="http://www.w3.org/2000/svg">
<path d="M44.7198 18C44.7198 27.3522 36.8236 35 26.9998 35C17.176 35 9.27979 27.3522 9.27979 18C9.27979 8.64776 17.176 1 26.9998 1C36.8236 1 44.7198 8.64776 44.7198 18Z" stroke="#C9CDD1" stroke-width="2"/>
<path d="M1 52L0.00584504 51.892C-0.0248174 52.1744 0.0660255 52.4565 0.255701 52.6678C0.445376 52.8792 0.71599 53 1 53V52ZM53 52V53C53.284 53 53.5546 52.8792 53.7443 52.6678C53.934 52.4565 54.0248 52.1744 53.9942 51.892L53 52ZM1.99415 52.108C2.30131 49.2796 3.88647 45.2644 7.70509 41.9535C11.5088 38.6555 17.5959 36 27 36V34C17.2041 34 10.6246 36.7751 6.3949 40.4424C2.1802 44.0967 0.365358 48.5815 0.00584504 51.892L1.99415 52.108ZM53.9942 51.892C53.6346 48.5815 51.8198 44.0967 47.6051 40.4424C43.3754 36.7751 36.7959 34 27 34V36C36.4041 36 42.4912 38.6555 46.2949 41.9535C50.1135 45.2644 51.6987 49.2796 52.0058 52.108L53.9942 51.892ZM1 53H53V51H1V53Z" fill="#C9CDD1"/>
</svg>
