<svg width="35" height="35" viewBox="0 0 35 35" fill="none" xmlns="http://www.w3.org/2000/svg">
<path d="M17.5 13.375C10.1667 13.375 1.00001 20.5938 1.00001 23.6875C1.00001 26.7813 10.1667 34 17.5 34C24.8333 34 34 26.7813 34 23.6875C34 20.5938 24.8333 13.375 17.5 13.375ZM17.5 13.375V1.00001M27.4 15.4375L34 6.41407M7.60001 15.4375L1.00001 6.41407" stroke="#8276F4" stroke-width="2" stroke-linecap="round" stroke-linejoin="round"/>
<path d="M24 23.5C24 27.0899 21.0899 30 17.5 30C13.9101 30 11 27.0899 11 23.5C11 19.9101 13.9101 17 17.5 17C21.0899 17 24 19.9101 24 23.5Z" stroke="#8276F4" stroke-width="2"/>
</svg>
