<svg width="207" height="198" viewBox="0 0 207 198" fill="none" xmlns="http://www.w3.org/2000/svg">
<path d="M42.863 148.936L45.7796 59.558C45.7796 59.558 42.6633 1 104.989 1C167.316 1 164.198 59.558 164.198 59.558V145.854C145.96 138.139 136.576 132.539 133.035 121.198C141.757 112.39 147.313 106.934 148.616 96.542C163.132 95.3564 164.43 87.8341 161.082 68.804L154.849 65.722L153.557 56.7745C144.681 50.0876 129.919 34.9034 129.919 34.9034C109.511 46.9615 97.4026 48.5204 73.825 37.9854C73.825 37.9854 68.9831 51.1383 55.1271 57.0519V65.722C41.4946 62.7015 42.6619 105.788 61.3597 96.542C60.6442 106.006 64.1505 114.481 76.9413 124.28L70.9098 130.444L42.863 148.936Z" fill="#A8ABFF" stroke="#A8ABFF" stroke-linecap="round" stroke-linejoin="round"/>
<path d="M130.645 118.647C139.762 111.017 145.095 100.709 147.12 94.149C163.062 94.149 164.125 63.1542 151.371 63.1542C151.371 63.1542 151.988 58.9128 152.217 52.379M130.645 118.647C123.807 124.371 114.84 128.588 103.543 128.588C77.185 128.588 63.5098 105.629 59.967 94.149C44.0246 94.149 42.9615 63.1542 55.7156 63.1542C55.7156 63.1542 55.0985 58.9128 54.8696 52.379M130.645 118.647C130.645 118.647 134.34 131.304 140.864 135.599M66.2226 135.599L9.8847 166.201C5.61059 169.014 3 174.048 3 179.477C3 188.05 9.39899 195 17.2926 195H189.794C197.688 195 204.087 188.05 204.087 179.477C204.087 174.048 201.476 169.014 197.202 166.201L140.864 135.599M66.2226 135.599C72.7469 131.304 76.4416 118.647 76.4416 118.647M66.2226 135.599C93.9779 158.077 110.278 158.858 140.864 135.599" stroke="#000577" stroke-width="5" stroke-linecap="round" stroke-linejoin="round"/>
<circle cx="84.0548" cy="68.7671" r="6.64384" fill="#000577"/>
<ellipse cx="122.589" cy="68.7671" rx="6.20091" ry="6.64384" fill="#000577"/>
</svg>
