<svg width="34" height="34" viewBox="0 0 34 34" fill="none" xmlns="http://www.w3.org/2000/svg">
<path d="M18.4422 2.4383C17.8532 0.52058 15.1468 0.520557 14.5578 2.43829L11.8696 11.1895C11.8639 11.208 11.8494 11.215 11.8392 11.215H3.03436C1.07831 11.215 0.26705 13.695 1.79831 14.8718L9.00926 20.4135C9.02065 20.4223 9.02804 20.4403 9.02233 20.4589L6.28925 29.3565C5.71301 31.2324 7.87865 32.796 9.46756 31.5749L16.4827 26.1837C16.4933 26.1754 16.5067 26.1754 16.5173 26.1837L23.5324 31.5749C25.1214 32.796 27.287 31.2324 26.7108 29.3565L23.9777 20.4589C23.972 20.4403 23.9794 20.4223 23.9907 20.4135L31.2017 14.8718C32.733 13.6949 31.9217 11.215 29.9656 11.215H21.1608C21.1505 11.215 21.1361 11.208 21.1304 11.1895L18.4422 2.4383Z" stroke="#8276F4" stroke-width="2" stroke-linecap="round" stroke-linejoin="round"/>
</svg>
